<svg xmlns="http://www.w3.org/2000/svg" viewBox="0 0 240 48" fill="none">
  <!-- Icon: Cube with gear accent -->
  <g transform="translate(4, 4)">
    <path d="M20 12L8 19V33L20 40L32 33V19L20 12Z" fill="url(#dgrad1)" opacity="0.9"/>
    <path d="M20 12L32 19V33L20 40V26L32 19" fill="url(#dgrad2)" opacity="0.7"/>
    <path d="M8 19L20 12L32 19L20 26L8 19Z" fill="url(#dgrad3)" opacity="0.95"/>
    <rect x="29" y="10" width="4" height="3" rx="0.5" fill="#34D399" transform="rotate(15, 31, 11.5)"/>
    <rect x="32" y="14" width="4" height="3" rx="0.5" fill="#34D399" transform="rotate(45, 34, 15.5)"/>
    <rect x="33" y="19" width="4" height="3" rx="0.5" fill="#34D399" transform="rotate(75, 35, 20.5)"/>
  </g>
  <!-- Wordmark (white for dark backgrounds) -->
  <text x="52" y="34" font-family="'Inter', 'Segoe UI', system-ui, sans-serif" font-size="28" font-weight="700" letter-spacing="-0.5" fill="#F1F5F9">
    Part<tspan fill="url(#dgrad4)">ivo</tspan>
  </text>
  <defs>
    <linearGradient id="dgrad1" x1="8" y1="12" x2="32" y2="40" gradientUnits="userSpaceOnUse">
      <stop offset="0%" stop-color="#34D399"/>
      <stop offset="100%" stop-color="#10B981"/>
    </linearGradient>
    <linearGradient id="dgrad2" x1="20" y1="12" x2="32" y2="40" gradientUnits="userSpaceOnUse">
      <stop offset="0%" stop-color="#38BDF8"/>
      <stop offset="100%" stop-color="#0EA5E9"/>
    </linearGradient>
    <linearGradient id="dgrad3" x1="8" y1="12" x2="32" y2="26" gradientUnits="userSpaceOnUse">
      <stop offset="0%" stop-color="#6EE7B7"/>
      <stop offset="100%" stop-color="#34D399"/>
    </linearGradient>
    <linearGradient id="dgrad4" x1="0" y1="0" x2="1" y2="1">
      <stop offset="0%" stop-color="#34D399"/>
      <stop offset="100%" stop-color="#38BDF8"/>
    </linearGradient>
  </defs>
</svg>
