<svg xmlns="http://www.w3.org/2000/svg" viewBox="0 0 48 48" fill="none">
  <!-- Icon only: Cube with gear accent -->
  <g transform="translate(4, 4)">
    <path d="M20 4L4 13V31L20 40L36 31V13L20 4Z" fill="url(#ig1)" opacity="0.9"/>
    <path d="M20 4L36 13V31L20 40V22L36 13" fill="url(#ig2)" opacity="0.7"/>
    <path d="M4 13L20 4L36 13L20 22L4 13Z" fill="url(#ig3)" opacity="0.95"/>
    <rect x="33" y="5" width="5" height="4" rx="1" fill="#10B981" transform="rotate(15, 35.5, 7)"/>
    <rect x="37" y="10" width="5" height="4" rx="1" fill="#10B981" transform="rotate(45, 39.5, 12)"/>
    <rect x="38" y="17" width="5" height="4" rx="1" fill="#10B981" transform="rotate(75, 40.5, 19)"/>
  </g>
  <defs>
    <linearGradient id="ig1" x1="4" y1="4" x2="36" y2="40" gradientUnits="userSpaceOnUse">
      <stop offset="0%" stop-color="#10B981"/>
      <stop offset="100%" stop-color="#059669"/>
    </linearGradient>
    <linearGradient id="ig2" x1="20" y1="4" x2="36" y2="40" gradientUnits="userSpaceOnUse">
      <stop offset="0%" stop-color="#0EA5E9"/>
      <stop offset="100%" stop-color="#0284C7"/>
    </linearGradient>
    <linearGradient id="ig3" x1="4" y1="4" x2="36" y2="22" gradientUnits="userSpaceOnUse">
      <stop offset="0%" stop-color="#34D399"/>
      <stop offset="100%" stop-color="#10B981"/>
    </linearGradient>
  </defs>
</svg>
